# xmcd
#
# Track frame offsets:
#	150
#	18637
#	33848
#	51582
#	70053
#	88100
#	105947
#	122190
#	145425
#	171225
#	191715
#	204953
#	223148
#	234098
#	256343
#	272354
#	288662
#
# Disc length: 4084 seconds
#
# Revision: 0
# Processed by: cddbd v1.5.2PL0 Copyright (c) Steve Scherf et al.
# Submitted via: VUPlayer 2.49
#
DISCID=fc0ff211
DTITLE=Vortech - Devoid of Life
DYEAR=2012
DGENRE=Metal
TTITLE0=The Black Rite
TTITLE1=Neurovirus
TTITLE2=Shattered Cities
TTITLE3=Demon In the Circuitry
TTITLE4=Frozen Machine
TTITLE5=Lost
TTITLE6=Unveiling the Future
TTITLE7=The Apocalypse
TTITLE8=Grains of Reality
TTITLE9=The New Creations (Live)
TTITLE10=The Institution (Live)
TTITLE11=Shattered Cities (Live)
TTITLE12=The Core (Live)
TTITLE13=Evolutionary Project (Live)
TTITLE14=Neurovirus (Lost Control Remix by Vortech)
TTITLE15=Demon In the Circuitry (Demo)
TTITLE16=Shattered Cities (Demo)
EXTD=
EXTT0=
EXTT1=
EXTT2=
EXTT3=
EXTT4=
EXTT5=
EXTT6=
EXTT7=
EXTT8=
EXTT9=
EXTT10=
EXTT11=
EXTT12=
EXTT13=
EXTT14=
EXTT15=
EXTT16=
PLAYORDER=
